<svg xmlns="http://www.w3.org/2000/svg" width="55" height="55" viewBox="0 0 55 55">
  <g id="logo-mini" transform="translate(0.002 0.002)">
    <g id="Asset-1KO" transform="translate(-0.002 -0.002)">
      <path id="Path" d="M55,27.5A27.5,27.5,0,1,0,27.5,55,27.5,27.5,0,0,0,55,27.5" transform="translate(0.002 0.002)" fill="#f40000"/>
      <path id="Shape" d="M41.446,45.065a6.166,6.166,0,0,0-2,1.556c-1.084,1.187-1.7,2.518-1.242,2.87.181.136.59.158,1.322-.51a5.964,5.964,0,0,0,1.581-2.2,2.992,2.992,0,0,0,.326-1.727m5.9,2.131c-1.2-.615-2.07-1.362-2.982-1.828a3.427,3.427,0,0,0-2.119-.545,1.943,1.943,0,0,0-.291.07s.366,1.231-1.075,3.3S38.08,50.3,37.723,49.715s.115-1.85.965-2.953a10.719,10.719,0,0,1,2.449-2.118s-.5-.3-1.722.391a17.162,17.162,0,0,0-5.172,4.988,13.666,13.666,0,0,0-2.555,5.366c-.273,1.169-.026,2.43,1.278,2.43s2.819-1.986,3.247-2.676c.793-1.283,1.322-3.252.233-2.98a2.235,2.235,0,0,0-1.238,1.288,5.337,5.337,0,0,0-.392,1.138,4.616,4.616,0,0,0-1.057.615,8.1,8.1,0,0,0-1,.879,6.256,6.256,0,0,1,.753-2.452,4.02,4.02,0,0,1,2.89-2.272c.7-.057,1.617.536.841,2.729S34.2,58.944,31.8,58.979c-2.2.031-3.661-2.786-.586-7.7,3.423-5.432,7.388-7.1,8.709-7.286s1.718.382,1.718.382a5.6,5.6,0,0,1,2.467-.409c1.586.105,2.811,1.226,4.427,2.008-.441.409-.819.831-1.185,1.226m7.11-1.837a6.732,6.732,0,0,1-4.075,1.2c-.37.382-.767.822-1.163,1.318,2.533.5,4.749-1.068,5.929-2.4a7.809,7.809,0,0,0,1.1-1.573,9.651,9.651,0,0,1-1.789,1.455M51.1,52.483a.437.437,0,0,0,.044-.105.247.247,0,0,0-.229-.22c-.242,0-.573.035-1.432.984a12.971,12.971,0,0,0-1.837,2.6c-.493.879-.692,1.569-.405,1.758a.411.411,0,0,0,.3.031c.189-.044.41-.224.74-.606.154-.18.33-.439.533-.716.568-.773,2-3.217,2.286-3.709m-8.969,1.024c.145-.378.326-1.112-.057-1.4s-1.449.413-1.458,1.151a1.275,1.275,0,0,0,.916,1.147c.1.031.137.026.185-.057a6.585,6.585,0,0,0,.414-.839m-.78,1.4a3.564,3.564,0,0,1-.718-.439,2.409,2.409,0,0,1-.542-.655c0-.022-.026,0-.044,0a9.887,9.887,0,0,0-.634.879c-.555.817-1.41,2.5-.634,2.786.493.185,1.322-.681,1.762-1.257a10.309,10.309,0,0,0,.833-1.261c0-.044,0-.057-.026-.066m8.775,1.942c-.211.334-.441.976.247.576a9.819,9.819,0,0,0,2.048-2.312h.542a17.891,17.891,0,0,1-1.648,2.167c-.859.945-1.9,1.806-2.643,1.723-.881-.1-.59-1.226-.59-1.226s-1.233,1.318-2.084,1.213c-1.137-.114-.78-1.547-.78-1.547s-1.322,1.6-2.2,1.543c-1.388-.079-1.04-1.758-.652-2.949.207-.637.4-1.134.4-1.134s-.137.035-.441.079a4.412,4.412,0,0,0-.441.04s-.581,1.015-1.04,1.626-2.405,2.72-3.551,2.3c-1.07-.391-.718-2.026-.093-3.322.907-1.89,3.458-4.614,4.934-4.258s.035,3.151.035,3.151h0a.653.653,0,0,0,.291,0,3.4,3.4,0,0,0,.559-.163,32.507,32.507,0,0,1,3.229-5.313c1.7-2.1,5.079-5.713,6.41-4.834.322.215.176.954-.26,1.855-.194.057-.4.114-.6.154a4.823,4.823,0,0,0,.542-1.288c.2-1.081-2.339,1.2-4.154,3.665a34.173,34.173,0,0,0-2.9,4.689,7.586,7.586,0,0,0,.938-.664,27.226,27.226,0,0,0,2.3-2.149A25.152,25.152,0,0,0,50.5,48.216a3.513,3.513,0,0,0,.573-.062,24.842,24.842,0,0,1-2.159,2.553c-.722.73-1.507,1.512-2.2,2.087a19.03,19.03,0,0,1-1.916,1.424s-1.59,3.186-.727,3.393c.507.123,1.507-1.419,1.507-1.419s1.322-1.991,2.1-2.887c1.075-1.217,2-1.92,2.925-1.938a1.1,1.1,0,0,1,.855.563l.251-.391h1.568s-2.916,4.935-3.15,5.309M54.463,45.36a6.732,6.732,0,0,1-4.075,1.2c-.37.382-.767.822-1.163,1.318,2.533.5,4.749-1.068,5.929-2.4a7.809,7.809,0,0,0,1.1-1.573,9.651,9.651,0,0,1-1.789,1.455M51.776,58.073h.238a.631.631,0,0,1,.189,0,.176.176,0,0,1,.11.176.145.145,0,0,1-.07.132.242.242,0,0,1-.1.04.146.146,0,0,1,.119.066.213.213,0,0,1,.04.105v.136h-.11v-.079c0-.079,0-.132-.066-.154A.22.22,0,0,0,52,58.469h-.1v.268h-.123Zm.414.211c0-.053,0-.088-.044-.1A.3.3,0,0,0,52,58.157h-.1V58.4H52a.348.348,0,0,0,.115,0,.114.114,0,0,0,.07-.105m.441.132a.625.625,0,1,1-1.066-.439.635.635,0,0,1,.881,0,.588.588,0,0,1,.181.439M52,57.893a.52.52,0,0,0-.379.158.508.508,0,0,0-.159.378.536.536,0,0,0,.159.387A.521.521,0,0,0,52,58.97a.528.528,0,0,0,.564-.532.506.506,0,0,0-.154-.378.529.529,0,0,0-.383-.158M32.56,47.794H31.076l-.841,1.354h1.48Zm-7.048,4.685c.634-.879,2.374-3.889,2.374-3.889a.255.255,0,0,0-.233-.22c-.242,0-.639.07-1.441,1.068a18.559,18.559,0,0,0-1.868,2.615c-.493.879-.714,1.538-.441,1.71a.441.441,0,0,0,.3.031A1.761,1.761,0,0,0,25,53.165c.159-.176.33-.439.537-.7m-7.965-4.087c-.41-.308-1.454.413-1.458,1.156s.943.993,1.066.993a.128.128,0,0,0,.15-.057c.026-.057.154-.294.3-.668s.326-1.116-.057-1.406m-.617,2.61a3.5,3.5,0,0,1-.815-.374A1.694,1.694,0,0,1,15.565,50c0-.026-.031,0-.048,0s-.1.132-.652.945-1.37,2.5-.6,2.786c.493.185,1.322-.686,1.762-1.257a15.055,15.055,0,0,0,.938-1.4c.022-.048,0-.062-.026-.07m12.128.5h.542s-2.722,3.929-4.264,3.753c-.855-.1-.6-1.16-.6-1.16s-1.207,1.411-2.313,1.129c-1-.259-.357-1.925-.357-1.925-.115.044-2.291,2.492-3.819,1.907s-.771-2.663-.441-3.278c.247-.519.529-1.028.529-1.028s-.247.07-.4.105l-.383.079s-.758,1.226-1.22,1.841-2.4,2.72-3.577,2.3-.881-2.035-.22-3.318c1.053-2.087,3.555-4.645,5.062-4.258s.264,2.848.264,2.848.3.044,1.026-.439c1.048-.712,2.427-2.637,3.921-2.4.7.1,1.352.822.463,2.2-.291.439-.767.831-1.137.439-.229-.237-.031-.681.211-.98a.948.948,0,0,1,.806-.369s.247-.563-.379-.554c-.511,0-1.793,1.191-2.52,2.386-.67,1.1-1.678,2.966-.661,3.371.925.374,2.692-1.718,3.524-2.817s2.683-3.586,4.247-3.687a1.04,1.04,0,0,1,.859.439l.181-.286H29.97s-2.947,4.909-3.176,5.274c-.181.29-.441.945.247.58A11.65,11.65,0,0,0,29.093,51.5m-.863,7.862A6.531,6.531,0,0,0,24.3,58.218a2.416,2.416,0,0,0-1.921,1.037c-.595-1.037-1.762-1.674-3.6-1.661-2.947.035-5.872,1.393-8.189,1.393A3.547,3.547,0,0,1,6.8,55.125c.088-4.338,3.766-8.244,6.511-10.007A6.116,6.116,0,0,1,17.076,43.9a1.261,1.261,0,0,1,.912,1.868c-.7,1.569-1.674,1.437-1.639.686a1.14,1.14,0,0,1,1.159-1.1c.141-.114.247-.971-.881-.69a9.087,9.087,0,0,0-3.788,2.817,15.513,15.513,0,0,0-3.819,7C8.785,55.8,8.944,58.2,12.071,58.17c2.643,0,6.564-1.758,10.158-1.732a6.863,6.863,0,0,1,3.555.967,9.916,9.916,0,0,1,2.445,1.978" transform="translate(-3.809 -24.54)" fill="#fff"/>
    </g>
  </g>
</svg>
