<svg xmlns="http://www.w3.org/2000/svg" width="138" height="55" viewBox="0 0 138 55">
  <g id="logo" transform="translate(-394 -527)">
    <rect id="Rectangle_7" data-name="Rectangle 7" width="122" height="55" transform="translate(402 527)" fill="none"/>
    <g id="the-coca-cola-company-logo" transform="translate(373.688 536)">
      <path id="Path_1" data-name="Path 1" d="M93.09,8.068l-.007,0c.881-.968,1.857-2,2.879-2.985-1.243-.61-2.391-1.3-3.5-1.969C90.053,1.661,87.822.319,85.182.139a13.509,13.509,0,0,0-6,1S78.159-.266,75,.189,62.1,4.735,53.805,18.081c-7.5,12.064-3.975,18.982,1.411,18.908,5.838-.082,11.39-6.612,13.274-12s-.339-6.843-2.046-6.7c-1.887.16-5.221,1.849-7.055,5.583A15.3,15.3,0,0,0,57.555,29.9a19.1,19.1,0,0,1,2.438-2.169,10.938,10.938,0,0,1,2.571-1.505,13.523,13.523,0,0,1,.956-2.8c.663-1.391,1.714-2.839,3.012-3.166,2.635-.664,1.372,4.17-.564,7.322-1.041,1.682-4.734,6.549-7.905,6.549s-3.778-3.074-3.111-5.959S56.546,21.645,61.181,15A41.975,41.975,0,0,1,73.732,2.765c2.981-1.7,4.194-.955,4.194-.955A25.861,25.861,0,0,0,71.954,7c-2.067,2.712-3.305,5.761-2.346,7.255.917,1.423,4.138,1.452,7.69-3.7,3.506-5.09,2.625-8.117,2.625-8.117a5.214,5.214,0,0,1,.705-.177c1.711-.231,3.08.227,5.2,1.32a32.2,32.2,0,0,1,3.127,1.946,40.522,40.522,0,0,0,4.132,2.54l0,0ZM78.723,2.829a14.971,14.971,0,0,0-4.882,3.816c-2.624,2.911-4.155,6.187-3.023,7.053.434.33,1.436.387,3.256-1.26a14.462,14.462,0,0,0,3.848-5.37c1.108-2.717.839-4.05.8-4.22C78.724,2.837,78.723,2.831,78.723,2.829Z" transform="translate(26.172 0.087)" fill="#f40000" fill-rule="evenodd"/>
      <path id="Path_2" data-name="Path 2" d="M75.011,9.716l0,0c6.166,1.22,11.566-2.6,14.438-5.852A19.2,19.2,0,0,0,92.131.032a24.075,24.075,0,0,1-4.36,3.584l-.018,0c-2.674,1.714-6.374,3.27-9.93,2.928-.9.931-1.863,2.007-2.822,3.175Z" transform="translate(48.973 0.028)" fill="#f40000"/>
      <path id="Path_3" data-name="Path 3" d="M91.668,31.621c-.511.823-1.093,2.4.6,1.42,2.056-1.2,4.988-5.679,4.988-5.679h1.326a44.671,44.671,0,0,1-4.028,5.324c-2.085,2.325-4.628,4.437-6.42,4.227-2.092-.245-1.436-3.01-1.436-3.01s-3.005,3.195-5.069,2.978c-2.8-.312-1.944-3.791-1.944-3.791s-3.175,3.9-5.319,3.787c-3.379-.2-2.529-4.345-1.591-7.248.5-1.558.97-2.783.97-2.783s-.335.089-1.058.2c-.378.053-1.058.092-1.058.092a46.238,46.238,0,0,1-2.533,4c-1.125,1.5-5.9,6.677-8.727,5.64-2.6-.958-1.743-4.969-.226-8.164,2.212-4.646,8.434-11.323,12.022-10.446,3.721.909.085,7.738.085,7.738s0,.025.039.043a1.518,1.518,0,0,0,.706-.039,7.863,7.863,0,0,0,1.361-.408,79.6,79.6,0,0,1,7.87-13.034C86.353,7.31,94.6-1.556,97.838.591c.79.529.43,2.346-.635,4.554a14.688,14.688,0,0,1-1.46.383,12.043,12.043,0,0,0,1.326-3.166c.487-2.662-5.693,2.95-10.11,8.991A83.856,83.856,0,0,0,79.9,22.865a19.276,19.276,0,0,0,2.279-1.633,65.7,65.7,0,0,0,5.609-5.268,61.69,61.69,0,0,0,4.758-5.559,12.792,12.792,0,0,0,1.411-.146,61.165,61.165,0,0,1-5.266,6.261L88.224,17c-1.628,1.64-3.344,3.37-4.856,4.651a44.5,44.5,0,0,1-4.66,3.507s-3.88,7.837-1.764,8.341c1.235.3,3.676-3.482,3.676-3.482a87.247,87.247,0,0,1,5.1-7.1c2.6-2.982,4.857-4.7,7.1-4.746A2.674,2.674,0,0,1,94.9,19.553l.617-.962h3.8S92.226,30.7,91.658,31.614Zm2.381-10.713a1.394,1.394,0,0,0,.113-.259.622.622,0,0,0-.564-.543c-.585-.028-1.39.085-3.489,2.424a31.777,31.777,0,0,0-4.466,6.389c-1.2,2.211-1.69,3.858-1,4.284a1,1,0,0,0,.727.074c.469-.114,1-.554,1.806-1.494.3-.353.632-.823,1.008-1.362l0-.005.286-.408c1.39-1.9,4.882-7.894,5.573-9.1ZM72.229,23.45c.353-.923.8-2.733-.13-3.443-1-.756-3.527,1.015-3.552,2.84a3.172,3.172,0,0,0,2.222,2.818c.247.067.332.057.452-.142a16.552,16.552,0,0,0,1.009-2.066Zm-1.922,3.39a7.687,7.687,0,0,1-1.746-1.122,5.67,5.67,0,0,1-1.316-1.6c-.029-.05-.058-.017-.09.017l-.02.021h0a24.519,24.519,0,0,0-1.551,2.193c-1.362,2.006-3.436,6.137-1.552,6.844,1.206.451,3.214-1.675,4.314-3.085a26.408,26.408,0,0,0,2.021-3.1C70.423,26.893,70.366,26.865,70.306,26.84Z" transform="translate(34.392 0.233)" fill="#f40000" fill-rule="evenodd"/>
      <path id="Path_4" data-name="Path 4" d="M56.181,5.056H52.569l-2.042,3.3h3.612Z" transform="translate(27.011 4.556)" fill="#f40000"/>
      <path id="Path_5" data-name="Path 5" d="M68.639,14.438h1.312S63.32,24.138,59.57,23.7c-2.092-.246-1.471-2.856-1.471-2.856s-2.945,3.481-5.644,2.785c-2.448-.636-.868-4.752-.868-4.752a4.031,4.031,0,0,0-.44.4c-1.388,1.35-5.69,5.534-8.855,4.3-3.88-1.521-1.873-6.58-1.132-8.1.628-1.282,1.323-2.531,1.323-2.531s-.6.171-.97.257-.935.2-.935.2-1.841,3.031-2.967,4.541-5.912,6.709-8.731,5.673-2.116-5.027-.536-8.212C30.913,10.26,37.009,3.941,40.691,4.89s.639,7.044.639,7.044.737.1,2.5-1.125a22.588,22.588,0,0,0,2.375-2.045c2.117-1.985,4.566-4.281,7.149-3.886,1.707.261,3.3,2.035,1.122,5.4-.706,1.071-1.866,2.049-2.762,1.093-.557-.589-.071-1.678.515-2.421a2.3,2.3,0,0,1,.87-.7A2.272,2.272,0,0,1,54.2,8.047s.6-1.4-.928-1.367C52.032,6.7,48.9,9.621,47.132,12.57c-1.6,2.717-4.053,7.33-1.6,8.337,2.261.925,6.565-4.245,8.558-6.955s6.529-8.851,10.339-9.1a2.529,2.529,0,0,1,2.092,1.125l.441-.714h3.8S63.6,17.4,63.041,18.311c-.441.714-1.026,2.331.6,1.428S68.639,14.438,68.639,14.438Zm-8.625,2.417c1.538-2.142,5.778-9.6,5.778-9.6a.631.631,0,0,0-.187-.374.617.617,0,0,0-.378-.172c-.586-.029-1.559.171-3.527,2.635A43.737,43.737,0,0,0,57.172,15.8c-1.206,2.224-1.732,3.8-1.041,4.22a1.008,1.008,0,0,0,.727.075,4.382,4.382,0,0,0,1.849-1.514c.381-.439.811-1.032,1.316-1.728ZM40.638,6.751c-1-.764-3.527,1.021-3.552,2.856s2.293,2.406,2.593,2.421a.31.31,0,0,0,.2-.014.316.316,0,0,0,.151-.136,17.688,17.688,0,0,0,.73-1.653c.353-.928.794-2.749-.134-3.463Zm-1.517,6.437a8.417,8.417,0,0,1-1.958-.91,4.13,4.13,0,0,1-1.411-1.567c-.031-.053-.064-.014-.1.023l-.014.016c-.035.039-.24.311-1.6,2.328s-3.372,6.144-1.485,6.852c1.206.453,3.235-1.692,4.332-3.11a36.869,36.869,0,0,0,2.289-3.452c.046-.121,0-.15-.067-.171Z" transform="translate(5.91 4.261)" fill="#f40000" fill-rule="evenodd"/>
      <path id="Path_6" data-name="Path 6" d="M72.475,38A15.713,15.713,0,0,0,62.9,35.189a5.858,5.858,0,0,0-4.67,2.548c-1.453-2.552-4.325-4.117-8.766-4.081a48.433,48.433,0,0,0-11.03,1.857,38.922,38.922,0,0,1-8.9,1.55c-5.411,0-9.351-3.421-9.221-9.493.233-10.646,9.171-20.228,15.873-24.55C40.03.536,43.243-.2,45.36.042a3.093,3.093,0,0,1,2.215,4.585c-1.711,3.85-4.074,3.527-3.986,1.689a3.043,3.043,0,0,1,1.436-2.36A2.886,2.886,0,0,1,46.436,3.6c.353-.287.6-2.392-2.155-1.7s-6.1,3.414-9.263,6.927S26.94,18.979,25.723,25.948c-.568,3.233-.191,9.127,7.408,9.063,2.93-.024,6.494-.918,10.332-1.881,4.615-1.157,9.625-2.414,14.4-2.377a16.656,16.656,0,0,1,8.656,2.385c2.265,1.419,4.977,3.449,5.94,4.847Z" transform="translate(0 0)" fill="#f40000"/>
      <path id="Path_15" data-name="Path 15" d="M93.183,11.86h0Z" transform="translate(65.127 10.674)" fill="#f40000"/>
    </g>
  </g>
</svg>
